HIERARCHY
ROOT SpineBase
{
  OFFSET 0.000000 0.000000 0.000000
  CHANNELS 6 Xposition Yposition Zposition Zrotation Xrotation Yrotation
  JOINT SpineMid
  {
    OFFSET 0.000000 32.203239 0.000000
    CHANNELS 3 Zrotation Xrotation Yrotation
    JOINT SpineShoulder
    {
      OFFSET 0.359056 23.897732 -0.638242
      CHANNELS 3 Zrotation Xrotation Yrotation
      JOINT Neck
      {
        OFFSET 0.230466 7.910979 -0.487340
        CHANNELS 3 Zrotation Xrotation Yrotation
        JOINT Head
        {
          OFFSET -5.567964 14.258327 -0.760624
          CHANNELS 3 Zrotation Xrotation Yrotation
          End Site
          {
            OFFSET 0 0 0
          }
        }
      }
      JOINT ShoulderLeft
      {
        OFFSET -17.708444 -6.388572 6.057163
        CHANNELS 3 Zrotation Xrotation Yrotation
        JOINT ElbowLeft
        {
          OFFSET -0.815711 -27.047153 2.620770
          CHANNELS 3 Zrotation Xrotation Yrotation
          JOINT WristLeft
          {
            OFFSET -0.157378 -21.822108 -3.465422
            CHANNELS 3 Zrotation Xrotation Yrotation
            JOINT HandLeft
            {
              OFFSET 0.311855 -5.467298 -1.639690
              CHANNELS 3 Zrotation Xrotation Yrotation
              JOINT HandTipLeft
              {
                OFFSET 0.817088 -6.843567 -2.045428
                CHANNELS 3 Zrotation Xrotation Yrotation
                End Site
                {
                  OFFSET 0 0 0
                }
              }
              JOINT ThumbLeft
              {
                OFFSET -1.895361 -1.930622 -2.492616
                CHANNELS 3 Zrotation Xrotation Yrotation
                End Site
                {
                  OFFSET 0 0 0
                }
              }
            }
          }
        }
      }
      JOINT ShoulderRight
      {
        OFFSET 15.539817 -3.163585 -7.837573
        CHANNELS 3 Zrotation Xrotation Yrotation
        JOINT ElbowRight
        {
          OFFSET 6.884645 -26.684236 -1.114391
          CHANNELS 3 Zrotation Xrotation Yrotation
          JOINT WristRight
          {
            OFFSET -0.343453 -21.600558 -6.275012
            CHANNELS 3 Zrotation Xrotation Yrotation
            JOINT HandRight
            {
              OFFSET -2.100947 -7.476800 -0.248516
              CHANNELS 3 Zrotation Xrotation Yrotation
              JOINT HandTipRight
              {
                OFFSET -0.590348 -6.437085 -1.498188
                CHANNELS 3 Zrotation Xrotation Yrotation
                End Site
                {
                  OFFSET 0 0 0
                }
              }
              JOINT ThumbRight
              {
                OFFSET -2.576703 1.242867 -1.273906
                CHANNELS 3 Zrotation Xrotation Yrotation
                End Site
                {
                  OFFSET 0 0 0
                }
              }
            }
          }
        }
      }
    }
  }
  JOINT HipLeft
  {
    OFFSET -6.195592 0.011100 -1.212250
    CHANNELS 3 Zrotation Xrotation Yrotation
    JOINT KneeLeft
    {
      OFFSET 2.690913 -35.845055 4.820995
      CHANNELS 3 Zrotation Xrotation Yrotation
      JOINT AnkleLeft
      {
        OFFSET 4.255090 -35.905649 7.557289
        CHANNELS 3 Zrotation Xrotation Yrotation
        JOINT FootLeft
        {
          OFFSET 0.105102 -8.624327 -5.291126
          CHANNELS 3 Zrotation Xrotation Yrotation
          End Site
          {
            OFFSET 0 0 0
          }
        }
      }
    }
  }
  JOINT HipRight
  {
    OFFSET 7.776166 1.855702 -6.040700
    CHANNELS 3 Zrotation Xrotation Yrotation
    JOINT KneeRight
    {
      OFFSET 8.737666 -33.861581 0.586480
      CHANNELS 3 Zrotation Xrotation Yrotation
      JOINT AnkleRight
      {
        OFFSET 4.901228 -36.528154 7.338476
        CHANNELS 3 Zrotation Xrotation Yrotation
        JOINT FootRight
        {
          OFFSET -0.861009 -8.208967 -5.453418
          CHANNELS 3 Zrotation Xrotation Yrotation
          End Site
          {
            OFFSET 0 0 0
          }
        }
      }
    }
  }
}
MOTION
Frames: 8
Frame Time: 0.033333
-69.748494 82.539165 327.794117 -0.069480 0.452745 22.162397 -0.106446 -0.445506 -22.162536 -0.000000 0.000000 0.000000 1.043848 -0.479193 -0.126598 0.000000 0.000000 0.000000 -3.589193 -5.181405 -0.352098 0.933084 7.331948 0.714526 2.266184 0.599440 -0.092561 -5.792808 -4.295257 1.025338 0.000000 0.000000 0.000000 0.000000 0.000000 0.000000 -31.633117 55.104252 34.461899 -50.018243 29.466758 -9.218364 -2.720987 7.429038 -38.928635 7.743373 5.062423 36.366263 0.000000 0.000000 0.000000 0.000000 0.000000 0.000000 -1.870825 3.187366 -22.322659 2.170727 -2.638544 0.062570 -3.956383 7.472886 3.378954 0.000000 0.000000 0.000000 -0.445759 1.185172 -21.818967 -0.776896 -1.178511 -0.683668 -0.565151 -1.509966 1.940475 0.000000 0.000000 0.000000
-69.818757 82.750425 327.813418 -0.269448 0.541307 22.842927 0.038183 -0.603453 -22.841454 -0.000000 0.000000 0.000000 1.075828 -0.634247 -0.183605 0.000000 0.000000 0.000000 -3.532484 -5.075380 -0.344037 0.213601 7.086329 0.886001 3.206638 0.257632 -0.295864 -9.115359 -7.541232 1.200481 0.000000 0.000000 0.000000 0.000000 0.000000 0.000000 -45.951544 55.415660 44.773005 -41.465207 25.732962 -11.660051 -2.132726 6.754767 -39.384782 8.426518 4.472803 35.981548 0.000000 0.000000 0.000000 0.000000 0.000000 0.000000 -1.575314 3.093738 -22.991463 2.079015 -2.593685 0.058065 -3.388094 7.254467 2.990665 0.000000 0.000000 0.000000 -0.121797 0.960875 -22.497368 -0.929453 -1.185805 -0.684546 -0.935066 -2.043854 2.216882 0.000000 0.000000 0.000000
-69.907609 82.815073 327.829651 -0.520424 0.638510 23.685788 0.220113 -0.793775 -23.681363 -0.000000 0.000000 0.000000 1.220857 -0.714176 -0.205232 0.000000 0.000000 0.000000 -3.503672 -5.069078 -0.339987 -0.002459 7.468446 0.942165 3.069417 -1.591244 -0.310068 -8.087398 -3.518514 1.757735 0.000000 0.000000 0.000000 0.000000 0.000000 0.000000 -59.291602 54.612020 54.529686 -33.639381 20.921800 -13.868470 2.576887 5.617103 -36.605665 5.653956 0.627814 31.877401 0.000000 0.000000 0.000000 0.000000 0.000000 0.000000 -1.183235 2.938239 -23.816047 1.934016 -2.535666 0.046387 -2.309787 6.498736 2.257908 0.000000 0.000000 0.000000 0.113352 0.600557 -23.373977 -0.885238 -1.041560 -0.615393 -1.352238 -2.807643 2.441305 0.000000 0.000000 0.000000
-70.019256 82.809647 327.803575 -0.788577 0.756521 24.883507 0.397127 -1.018061 -24.874773 -0.000000 0.000000 0.000000 1.418453 -0.748847 -0.206421 0.000000 0.000000 0.000000 -3.513383 -5.063648 -0.341350 -0.059882 7.724590 0.966245 2.400637 -2.834118 -0.188083 -6.674115 -3.293005 1.398390 0.000000 0.000000 0.000000 0.000000 0.000000 0.000000 -68.764859 53.204021 61.311577 -26.668636 15.608699 -15.337219 6.933827 5.852090 -32.962307 2.899792 -3.512353 27.399632 0.000000 0.000000 0.000000 0.000000 0.000000 0.000000 -0.772941 2.704400 -24.995013 1.790468 -2.413977 0.042272 -1.469669 5.344518 1.660319 0.000000 0.000000 0.000000 0.221701 0.012469 -24.664054 -0.834619 -0.546533 -0.470435 0.345984 -5.884908 1.550160 0.000000 0.000000 0.000000
-70.103890 82.375625 327.829010 -0.986599 0.817874 24.249102 0.563784 -1.150834 -24.236397 -0.000000 0.000000 0.000000 1.564786 -0.787257 -0.211994 0.000000 0.000000 0.000000 -3.519975 -5.061650 -0.342275 -0.189049 7.814804 1.005132 0.957147 -6.990789 -0.145738 -4.118965 3.306367 1.724381 0.000000 0.000000 0.000000 0.000000 0.000000 0.000000 -75.269139 51.915913 65.976344 -20.347644 10.302215 -16.154716 8.804523 3.690341 -30.937480 -1.730396 -7.147748 22.074863 0.000000 0.000000 0.000000 0.000000 0.000000 0.000000 -0.557390 2.213587 -24.354097 1.598428 -1.944734 0.058115 -0.676347 4.190652 1.084500 0.000000 0.000000 0.000000 0.421198 -0.129826 -24.022066 -0.753289 -0.465297 -0.434484 -2.151052 -0.413566 2.474964 0.000000 0.000000 0.000000
-70.201452 82.117064 327.857231 -1.198579 0.872827 24.799642 0.722160 -1.294944 -24.782351 -0.000000 0.000000 0.000000 1.617544 -0.725385 -0.185650 0.000000 0.000000 0.000000 -3.524240 -5.060897 -0.342873 -0.193492 7.927359 1.010292 -0.024185 -10.349809 -0.236980 -4.510852 6.386791 2.412902 0.000000 0.000000 0.000000 0.000000 0.000000 0.000000 -80.555681 50.482151 69.577910 -14.247437 4.698403 -16.340543 7.524913 2.984936 -30.316982 -3.297511 -8.610270 19.731805 0.000000 0.000000 0.000000 0.000000 0.000000 0.000000 -0.222370 1.936419 -24.884554 1.448475 -1.708142 0.064424 -0.399149 4.370290 0.859472 0.000000 0.000000 0.000000 0.521818 -0.486896 -24.626643 -0.716901 -0.150050 -0.346716 -3.512929 4.750247 2.866536 0.000000 0.000000 0.000000
-70.259823 81.914800 327.847674 -1.353464 0.947913 25.616780 0.810899 -1.439729 -25.595395 -0.000000 0.000000 0.000000 1.648422 -0.585192 -0.131387 0.000000 0.000000 0.000000 -3.524256 -5.060931 -0.342876 -0.166401 7.925708 1.002941 -0.675553 -13.170495 -0.398822 -3.962038 9.693561 2.758617 0.000000 0.000000 0.000000 0.000000 0.000000 0.000000 -83.082158 49.419962 70.950135 -10.798889 1.399387 -16.018749 8.152112 1.104631 -29.154937 -5.761711 -10.419543 16.866666 0.000000 0.000000 0.000000 0.000000 0.000000 0.000000 -0.068295 1.669790 -25.699421 1.407320 -1.435697 0.089022 -0.872773 4.590218 1.113443 0.000000 0.000000 0.000000 0.810899 -1.439729 -25.595395 -1.234205 0.568545 -0.165955 -4.104094 8.650963 2.956230 0.000000 0.000000 0.000000
-70.285594 81.861361 327.764205 -1.462201 1.077102 26.204973 0.592362 -0.799514 -26.209362 0.577923 -0.620950 0.027894 1.658338 -0.448608 -0.079753 0.000000 0.000000 0.000000 -3.524212 -5.061304 -0.342870 -0.136951 7.852949 0.993324 -1.060887 -15.431942 -0.578556 -3.299047 12.926793 2.982104 0.000000 0.000000 0.000000 0.000000 0.000000 0.000000 -82.980921 49.146747 70.536694 -9.608916 0.077759 -15.782815 9.249470 0.058177 -27.964250 -6.734292 -9.866262 16.241257 0.000000 0.000000 0.000000 0.000000 0.000000 0.000000 -0.140642 1.305137 -26.309541 1.492665 -1.079119 0.138423 -0.049480 1.858525 0.494577 0.000000 0.000000 0.000000 0.836686 -1.611853 -26.179458 -1.205428 0.608866 -0.154460 -4.241065 10.873738 2.857518 0.000000 0.000000 0.000000
